<svg version="1.1" preserveAspectRatio="none" xmlns="http://www.w3.org/2000/svg" width="500" height="500" viewBox="0 0 500 500"><rect width="100%" height="100%" fill="#FFEB62" fill-opacity="1"/><svg viewBox="88.6476 350.1335 364.5355 474.0538" width="256.0686603503653" height="333" x="121.9657px" y="83.5px" xmlns="http://www.w3.org/2000/svg" xmlns:xlink="http://www.w3.org/1999/xlink" preserveAspectRatio="none"><defs></defs><style>.companyName {fill:#262626;fill-opacity:1;}.icon1 {fill:#262626;fill-opacity:1;}.icon2 {fill:#FF7B04;fill-opacity:1;}.icon3 {fill:#928B53;fill-opacity:1;}.icon3-str {stroke:#928B53;stroke-opacity:1;}</style><g opacity="1" transform="rotate(0 88.6476 350.1335)">
<svg width="364.5355" height="364.0538" x="88.6476" y="350.1335" version="1.1" preserveAspectRatio="none" viewBox="12.199999809265137 12.199999809265137 75.69999694824219 75.5999984741211">
  <g transform="matrix(1 0 0 1 0 0)" class="icon1"><path d="M19.4,63.1H25c0.3,0,0.5-0.2,0.5-0.5V31.7c0-3.4,2.8-6.2,6.2-6.2h30.9c0.3,0,0.5-0.2,0.5-0.5v-5.6c0-4-3.2-7.2-7.2-7.2H19.4  c-4,0-7.2,3.2-7.2,7.2V56C12.2,59.9,15.4,63.1,19.4,63.1z"></path><path d="M36.9,75v5.6c0,4,3.2,7.2,7.2,7.2h36.6c4,0,7.2-3.2,7.2-7.2V44c0-4-3.2-7.2-7.2-7.2H75c-0.3,0-0.5,0.2-0.5,0.5v30.9  c0,3.4-2.8,6.2-6.2,6.2H37.4C37.1,74.5,36.9,74.7,36.9,75z"></path><path d="M37.4,63.1H56c4,0,7.2-3.2,7.2-7.2V37.4c0-0.3-0.2-0.5-0.5-0.5H44c-4,0-7.2,3.2-7.2,7.2v18.6C36.9,62.9,37.1,63.1,37.4,63.1  z"></path></g>
</svg>
</g><g opacity="1" transform="rotate(0 88.6476 754.1873)">
<svg width="364.5355" height="70" x="88.6476" y="754.1873" version="1.1" preserveAspectRatio="none" viewBox="-0.92 -28.64 152.48 29.28">
  <g transform="matrix(1 0 0 1 0 0)" class="companyName"><path id="id-D6z1nYkh5" d="M11.20 0.64Q7.56 0.64 4.36-0.14Q1.16-0.92-0.92-2.20L-0.92-2.20L2.72-9.16Q7.24-6.56 12.16-6.56L12.16-6.56Q13.96-6.56 14.92-7Q15.88-7.44 15.88-8.20L15.88-8.20Q15.88-8.92 14.90-9.36Q13.92-9.80 11.80-10.32L11.80-10.32Q9-11.04 7.16-11.78Q5.32-12.52 3.94-14.06Q2.56-15.60 2.56-18.12L2.56-18.12Q2.56-21.28 4.26-23.66Q5.96-26.04 9.16-27.34Q12.36-28.64 16.72-28.64L16.72-28.64Q19.84-28.64 22.54-28.02Q25.24-27.40 27.20-26.24L27.20-26.24L23.80-19.36Q22.16-20.40 20.18-20.92Q18.20-21.44 16.12-21.44L16.12-21.44Q14.16-21.44 13.08-20.88Q12-20.32 12-19.56L12-19.56Q12-18.80 12.98-18.36Q13.96-17.92 16.20-17.40L16.20-17.40Q18.92-16.76 20.78-16.04Q22.64-15.32 24-13.80Q25.36-12.28 25.36-9.80L25.36-9.80Q25.36-6.68 23.64-4.32Q21.92-1.96 18.72-0.66Q15.52 0.64 11.20 0.64L11.20 0.64Z M47.68 0L46.76-4.88L36.08-4.88L33.28 0L23.32 0L41.16-28L50.44-28L57.08 0L47.68 0ZM39.96-11.68L45.44-11.68L44.08-18.84L39.96-11.68Z M84.08-14.40Q85.88-13.60 86.86-12.22Q87.84-10.84 87.84-8.92L87.84-8.92Q87.84-4.48 84.18-2.24Q80.52 0 74.76 0L74.76 0L58.60 0L64.20-28L79.04-28Q83.96-28 86.52-26.26Q89.08-24.52 89.08-21.32L89.08-21.32Q89.08-18.96 87.76-17.18Q86.44-15.40 84.08-14.40L84.08-14.40ZM76.76-21.40L72.16-21.40L71.32-17.24L76.12-17.24Q79.24-17.24 79.24-19.68L79.24-19.68Q79.24-20.52 78.60-20.96Q77.96-21.40 76.76-21.40L76.76-21.40ZM75.28-6.60Q76.72-6.60 77.60-7.26Q78.48-7.92 78.48-9.16L78.48-9.16Q78.48-10.04 77.82-10.52Q77.16-11 76.16-11L76.16-11L70.08-11L69.20-6.60L75.28-6.60Z M110.84 0L109.92-4.88L99.24-4.88L96.44 0L86.48 0L104.32-28L113.60-28L120.24 0L110.84 0ZM103.12-11.68L108.60-11.68L107.24-18.84L103.12-11.68Z M151.56-18.80Q151.56-15.08 149.58-12.30Q147.60-9.52 144-8.16L144-8.16L148.68 0L138.88 0L134.92-7.04L132.60-7.04L131.20 0L121.76 0L127.36-28L139.92-28Q145.44-28 148.50-25.58Q151.56-23.16 151.56-18.80L151.56-18.80ZM142-17.88Q142-20.72 138.48-20.72L138.48-20.72L135.32-20.72L134-14.16L137.88-14.16Q139.84-14.16 140.92-15.14Q142-16.12 142-17.88L142-17.88Z"/></g>
</svg>
</g></svg></svg>